<svg version="1.1" xmlns="http://www.w3.org/2000/svg" xmlns:xlink="http://www.w3.org/1999/xlink" x="0px" y="0px" viewBox="0 0 301.5 73.5" style="enable-background:new 0 0 301.5 73.5;" xml:space="preserve" id="1661543381" class="svg u_1661543381" data-icon-custom="true" data-icon-name="washmen new website assets-10.svg"> <style type="text/css">.st0{opacity:0.1;}
	.st1{opacity:0.3;fill:#414C9F;}
	.st2{fill:#414C9F;}
	.st3{opacity:0.13;}
	.st4{fill:#EDEDEE;}
	.st5{fill:#B65534;}
	.st6{opacity:0.5;}
	.st7{opacity:0.8;}
	.st8{fill:#5F2F16;}
	.st9{opacity:0.4;fill:url(#SVGID_3_);}
	.st10{opacity:0.4;fill:url(#SVGID_4_);}
	.st11{opacity:0.4;}
	.st12{fill:url(#SVGID_5_);}
	.st13{fill:url(#SVGID_6_);}
	.st14{display:none;opacity:0.3;fill:url(#SVGID_7_);}
	.st15{opacity:0.4;fill:url(#SVGID_8_);}
	.st16{opacity:0.4;fill:url(#SVGID_9_);}
	.st17{fill:url(#SVGID_10_);}
	.st18{fill:url(#SVGID_11_);}
	.st19{display:none;opacity:0.3;fill:url(#SVGID_12_);}
	.st20{fill:#C8C6C4;}
	.st21{fill:url(#SVGID_13_);}
	.st22{opacity:0.4;fill:#7E7F82;}
	.st23{opacity:0.6;fill:#BFC0C1;}
	.st24{fill:url(#SVGID_14_);}
	.st25{fill:#FFFFFF;}
	.st26{opacity:0.2;fill:#7E7F82;}
	.st27{fill:url(#SVGID_15_);}
	.st28{fill:#843F24;}
	.st29{display:none;opacity:0.6;fill:#843F24;}
	.st30{fill:#A54E2E;}
	.st31{display:none;fill:#CD5D39;}
	.st32{opacity:0.3;fill:#FF643C;}
	.st33{fill:#666666;}
	.st34{fill:#73656A;}
	.st35{fill:#594F52;}
	.st36{fill:#61555A;}
	.st37{fill:#574C4F;}
	.st38{fill:#665A5E;}
	.st39{fill:#BFBFBF;}
	.st40{fill:#7D6E73;}
	.st41{fill:#52484A;}
	.st42{fill:#E3E3E3;}
	.st43{fill:#544B4E;}
	.st44{opacity:0.41;fill:#FFFFFF;}
	.st45{opacity:0.25;fill:#E3FAFF;}
	.st46{fill:#40659C;}
	.st47{fill:#4E7ABA;}
	.st48{fill:#5892E8;}
	.st49{fill:#4770AD;}
	.st50{opacity:0.49;fill:#E3FAFF;}
	.st51{fill:#567BD6;}
	.st52{fill:#363F91;}
	.st53-1661543381{fill:#3E48A6;}
	.st54{fill:#4B54AB;}
	.st55{fill:#03D3BB;}
	.st56{fill:#16365B;}
	.st57{fill:#7DA9EF;}
	.st58{fill:#03C7B1;}
	.st59{fill:url(#SVGID_16_);}
	.st60{display:none;opacity:0.3;fill:url(#SVGID_17_);}
	.st61{display:none;opacity:0.3;fill:url(#SVGID_18_);}
	.st62{opacity:0.1;fill:#414C9F;}
	.st63{opacity:0.65;fill:#EDEDEE;}
	.st64{fill:#F7C48A;}
	.st65{fill:#EEAF6B;}
	.st66{fill:#FCCCB7;}
	.st67{fill:#EE9D56;}
	.st68{opacity:0.65;fill:#EC8859;}
	.st69{opacity:0.4;fill:url(#SVGID_19_);}
	.st70{opacity:0.4;fill:url(#SVGID_20_);}
	.st71{fill:url(#SVGID_21_);}
	.st72{fill:url(#SVGID_22_);}
	.st73{display:none;opacity:0.3;fill:url(#SVGID_23_);}
	.st74{opacity:0.4;fill:url(#SVGID_24_);}
	.st75{opacity:0.4;fill:url(#SVGID_25_);}
	.st76{fill:url(#SVGID_26_);}
	.st77{fill:url(#SVGID_27_);}
	.st78{display:none;opacity:0.3;fill:url(#SVGID_28_);}
	.st79{fill:url(#SVGID_29_);}
	.st80{fill:url(#SVGID_30_);}
	.st81{fill:url(#SVGID_31_);}
	.st82{opacity:0.3;fill:#3E48A6;}
	.st83{fill:#E9E5D9;}
	.st84{fill:#BC8867;}
	.st85{fill:#BB8867;}
	.st86{opacity:0.5;fill:#3E48A6;}
	.st87{opacity:0.4;fill:#03D3BB;}
	.st88{opacity:0.2;}
	.st89{opacity:0.5;fill:#FFFFFF;stroke:#525252;stroke-width:0.5;stroke-miterlimit:10;}
	.st90{fill:#DEDEDE;}
	.st91{fill-rule:evenodd;clip-rule:evenodd;fill:#525252;}
	.st92{fill:#525252;}
	.st93{opacity:0.4;fill:url(#SVGID_32_);}
	.st94{opacity:0.4;fill:url(#SVGID_33_);}
	.st95{fill:url(#SVGID_34_);}
	.st96{fill:url(#SVGID_35_);}
	.st97{display:none;opacity:0.3;fill:url(#SVGID_36_);}
	.st98{opacity:0.4;fill:url(#SVGID_37_);}
	.st99{opacity:0.4;fill:url(#SVGID_38_);}
	.st100{fill:url(#SVGID_39_);}
	.st101{fill:url(#SVGID_40_);}
	.st102{display:none;opacity:0.3;fill:url(#SVGID_41_);}
	.st103{fill:url(#SVGID_42_);}
	.st104{fill:url(#SVGID_43_);}
	.st105{fill:url(#SVGID_44_);}
	.st106{opacity:0.1;fill:none;stroke:#414C9F;stroke-width:0.441;stroke-miterlimit:10;}
	.st107{fill:#45BEB0;}
	.st108{opacity:0.1;fill:none;stroke:#000000;stroke-width:0.441;stroke-miterlimit:10;}
	.st109{opacity:0.8;fill:#414C9F;}
	.st110{fill:#BEBDDE;}
	.st111{fill:#E6E6F0;}
	.st112{fill:#F9F9FC;}
	.st113{fill:#45499E;}
	.st114{opacity:0.4;fill:#414C9F;}
	.st115{fill:none;}
	.st116{opacity:0.8;fill:#FFFFFF;}
	.st117{fill:#EBF1F9;}
	.st118{opacity:0.5;fill:#414C9F;}
	.st119{opacity:0.3;fill:#03D3BB;}
	.st120{fill:#003240;}
	.st121{fill:#FFD77A;}
	.st122{fill:#71C5B8;}
	.st123{opacity:0.4;fill:url(#SVGID_45_);}
	.st124{opacity:0.4;fill:url(#SVGID_46_);}
	.st125{fill:url(#SVGID_47_);}
	.st126{fill:url(#SVGID_48_);}
	.st127{display:none;opacity:0.3;fill:url(#SVGID_49_);}
	.st128{opacity:0.4;fill:url(#SVGID_50_);}
	.st129{opacity:0.4;fill:url(#SVGID_51_);}
	.st130{fill:url(#SVGID_52_);}
	.st131{fill:url(#SVGID_53_);}
	.st132{display:none;opacity:0.3;fill:url(#SVGID_54_);}
	.st133{fill:url(#SVGID_55_);}
	.st134{fill:url(#SVGID_56_);}
	.st135{fill:url(#SVGID_57_);}
	.st136{fill-rule:evenodd;clip-rule:evenodd;fill:#878787;}
	.st137{fill-rule:evenodd;clip-rule:evenodd;fill:#F7C48A;}
	.st138{fill-rule:evenodd;clip-rule:evenodd;fill:#EEAF6B;}
	.st139{fill-rule:evenodd;clip-rule:evenodd;fill:#717272;}
	.st140{fill-rule:evenodd;clip-rule:evenodd;fill:#3E3A39;}
	.st141{fill-rule:evenodd;clip-rule:evenodd;fill:#DFE0E1;}
	.st142{fill-rule:evenodd;clip-rule:evenodd;fill:#221915;stroke:#221915;stroke-width:0.1783;stroke-miterlimit:22.9256;}
	.st143{fill-rule:evenodd;clip-rule:evenodd;fill:#221915;}
	.st144{fill-rule:evenodd;clip-rule:evenodd;fill:#271A19;}
	.st145{fill-rule:evenodd;clip-rule:evenodd;fill:#EEEDED;}
	.st146{fill-rule:evenodd;clip-rule:evenodd;fill:#F1BA7E;}
	.st147{fill:#F1BA7E;}
	.st148{fill-rule:evenodd;clip-rule:evenodd;fill:#F9E0C7;}
	.st149{clip-path:url(#SVGID_58_);fill-rule:evenodd;clip-rule:evenodd;fill:#03D3BB;}
	.st150{clip-path:url(#SVGID_58_);fill-rule:evenodd;clip-rule:evenodd;fill:#3E48A6;}
	.st151{clip-path:url(#SVGID_58_);fill-rule:evenodd;clip-rule:evenodd;fill:#FFFFFF;}
	.st152{opacity:5.000000e-02;fill-rule:evenodd;clip-rule:evenodd;fill:#ACDCF6;}
	.st153{opacity:0.2;fill:#414C9F;}
	.st154{fill-rule:evenodd;clip-rule:evenodd;fill:#EDEDEE;}
	.st155{clip-path:url(#SVGID_59_);fill-rule:evenodd;clip-rule:evenodd;fill:#03D3BB;}
	.st156{clip-path:url(#SVGID_59_);fill-rule:evenodd;clip-rule:evenodd;fill:#3E48A6;}
	.st157{clip-path:url(#SVGID_59_);fill-rule:evenodd;clip-rule:evenodd;fill:#FFFFFF;}
	.st158{opacity:0.1;fill-rule:evenodd;clip-rule:evenodd;fill:#414C9F;}
	.st159{opacity:0.35;fill:#525252;}
	.st160{opacity:0.2;fill:#525252;}
	.st161{opacity:0.3;fill:#525252;}
	.st162{fill:url(#SVGID_60_);}
	.st163{opacity:0.2;fill:url(#SVGID_61_);}
	.st164{opacity:0.3;fill:#DC6926;}
	.st165{opacity:0.3;fill:url(#SVGID_62_);}
	.st166{opacity:0.3;fill:url(#SVGID_63_);}
	.st167{opacity:0.3;fill:url(#SVGID_64_);}
	.st168{opacity:0.3;fill:url(#SVGID_65_);}
	.st169{opacity:0.9;fill:#B7B9BB;}
	.st170{fill:#797B7D;}
	.st171{fill:#A6A6A6;}
	.st172{fill:#D9DBDC;}
	.st173{fill:#808184;}
	.st174{fill:#BBBDBF;}
	.st175{opacity:0.7;fill:#FFFFFF;}
	.st176{fill:#949699;}
	.st177{opacity:0.5;fill:#03D3BB;}
	.st178{fill:#9A9C9F;}
	.st179{fill:#AAACAF;}
	.st180{fill:#757779;}
	.st181{fill:#CACCCE;}
	.st182{fill:#909295;}
	.st183{fill:#929497;}
	.st184{fill:#9C9EA1;}
	.st185{fill:#E6E7E8;}
	.st186{fill:none;stroke:#929497;stroke-width:0.8426;stroke-miterlimit:10;}
	.st187{fill:#D0D2D3;}
	.st188{fill:#7A7C7F;}
	.st189{fill:#FCEA24;}
	.st190{opacity:0.2;fill:#03D3BB;}
	.st191{opacity:0.6;fill:#FCEA25;}
	.st192{fill:#FFA529;}
	.st193{fill:#FCEA25;}
	.st194{fill:#3B44AC;}
	.st195{fill:#F4CC6A;}
	.st196{fill:#C68F30;}
	.st197{opacity:0.25;fill:#F4CC6A;}
	.st198{fill:#E1AD3D;}
	.st199{fill:#BE75FF;}
	.st200{fill:#FEB9EB;}
	.st201{fill:#A061FF;}
	.st202{fill:#9F48FF;}
	.st203{fill:#D783EB;}
	.st204{fill:#8B38D6;}
	.st205{fill:#8536CD;}
	.st206{fill:#02EFD7;}
	.st207{fill:#3DA99C;}
	.st208{fill:#FAE81F;}
	.st209{fill:#00D3BB;}
	.st210{fill:#3ADECB;}
	.st211{fill:#CA3232;}
	.st212{fill-rule:evenodd;clip-rule:evenodd;fill:#CA3232;}
	.st213{fill:#595959;}
	.st214{fill:#858585;}
	.st215{fill:#494949;}
	.st216{fill:#AAAAAA;}
	.st217{fill:#454545;}
	.st218{fill:#B0B0B0;}
	.st219{fill:#F9B385;}
	.st220{fill:#F9AA7D;}
	.st221{fill:#F6A478;}
	.st222{fill:#F28B5E;}
	.st223{opacity:0.5;fill:#03D3BB;enable-background:new    ;}
	.st224{fill:#FFCFFB;}
	.st225{opacity:0.3;fill:#FFCFFB;}
	.st226{opacity:0.3;fill:#F9B4F6;}
	.st227{fill:url(#SVGID_68_);}
	.st228{fill:url(#SVGID_69_);}
	.st229{fill:url(#SVGID_70_);}
	.st230{opacity:0.54;}
	.st231{fill:#D78C74;}
	.st232{fill:#E5A185;}
	.st233{fill:#2A2E8D;}
	.st234{fill:#394054;}
	.st235{fill:#999999;}
	.st236{opacity:9.000000e-02;}
	.st237{fill:#FF514D;}
	.st238{opacity:0.36;fill:#D78C74;}
	.st239{opacity:0.5;fill:#D78C74;}
	.st240{fill:#381911;}
	.st241{fill:url(#XMLID_147_);}
	.st242{opacity:0.79;fill:#FFFFFF;}
	.st243{fill:url(#XMLID_148_);}
	.st244{fill:#422E26;}
	.st245{fill:#6C332E;}
	.st246{opacity:0.35;fill:#C3BBA5;}
	.st247{opacity:0.2;fill:#FFFFFF;}
	.st248{fill:#4F372D;}
	.st249{opacity:0.14;fill:#422E26;}
	.st250{opacity:0.12;fill:#FFFFFF;}
	.st251{opacity:0.16;}
	.st252{fill:#03C1A2;}
	.st253{fill:#03968C;}
	.st254{fill:#6E6E6E;}
	.st255{opacity:0.91;}
	.st256{fill:#CE846F;}
	.st257{opacity:0.51;fill:#CE846F;}
	.st258{fill:url(#XMLID_149_);}
	.st259{fill:url(#XMLID_150_);}
	.st260{fill:none;stroke:#CE846F;stroke-width:1.3565;stroke-miterlimit:10;}
	.st261{opacity:0.1;fill:#FCEA25;}
	.st262{fill:#C68F30;stroke:#C68F30;stroke-width:0.2;stroke-miterlimit:10;}
	.st263{fill:none;stroke:#3E48A6;stroke-width:4;stroke-miterlimit:10;}
	.st264{fill:url(#SVGID_71_);}
	.st265{opacity:0.2;fill:url(#SVGID_72_);}
	.st266{opacity:0.3;fill:url(#SVGID_73_);}
	.st267{opacity:0.3;fill:url(#SVGID_74_);}
	.st268{opacity:0.3;fill:url(#SVGID_75_);}
	.st269{opacity:0.3;fill:url(#SVGID_76_);}
	.st270{fill:#E5E5E5;}
	.st271{fill:#FEAD6C;}
	.st272{fill:#FB924E;}
	.st273{fill:#373F8A;}
	.st274{fill:#E56528;}
	.st275{fill:#333333;}
	.st276{fill:#402A0A;}
	.st277{fill:#414241;}
	.st278{fill:#603813;}
	.st279{fill:#583F25;}
	.st280{opacity:0.2;fill:#9E6F42;}
	.st281{opacity:0.6;fill:#9E6F42;}
	.st282{opacity:0.3;fill:#9E6F42;}
	.st283{fill:#331A00;}
	.st284{fill:none;stroke:#3E48A6;stroke-width:2;stroke-miterlimit:10;}
	.st285{fill:#040505;}
	.st286{fill:#040505;stroke:#525252;stroke-width:0.5;}
	.st287{fill:#64B35B;}
	.st288{fill:#1DBCF3;}
	.st289{fill:#FFBE00;}
	.st290{fill:#E8293E;}
	.st291{fill:none;stroke:#3E48A6;stroke-width:2;}
	.st292{fill:#FFE300;}
	.st293{fill:#1F3C90;}
	.st294{fill:#A3A3A3;}</style> 
 <g id="Layer_1"></g> 
 <g id="Layer_2"></g> 
 <g id="to_animate"> <g> <g id="Group_1"> <path id="Path_1" class="st53-1661543381" d="M39.9,58.4L23.1,7.7c0-0.1,0-0.1-0.1-0.1c-2.2-5.6-8.4-8.3-14-6.2C3.6,3.5,0.9,9.5,2.8,15
				c0,0,0,0.1,0,0.1l16.5,49.7c1.7,5.7,7.7,9,13.4,7.2c5.7-1.7,9-7.7,7.2-13.4C40,58.6,40,58.5,39.9,58.4C40,58.4,40,58.4,39.9,58.4
				z"></path> 
 <path id="Path_2" class="st53-1661543381" d="M70.4,58.4l-10-30.2c0,0,0-0.1-0.1-0.1c-2.1-5.6-8.3-8.4-13.9-6.3c-5.6,2.1-8.4,8.2-6.4,13.8
				c0,0,0,0.1,0,0.1l9.7,29.2c1.7,5.7,7.7,9,13.4,7.2c5.7-1.7,9-7.7,7.2-13.4C70.5,58.6,70.4,58.5,70.4,58.4
				C70.4,58.4,70.4,58.4,70.4,58.4z"></path> 
 <path id="Path_3" class="st53-1661543381" d="M86.5,14.9c-0.2-0.5-0.4-0.9-0.6-1.3c0-0.1,0-0.1-0.1-0.2c0,0-0.1-0.1-0.2-0.4
				c0-0.1-0.1-0.1-0.1-0.2c-3-4.3-6.7-8.1-10.9-11.2c-2.3-1.8-5.7-1.4-7.5,1c-0.5,0.7-0.9,1.5-1,2.3c-1,5.3-1.4,12.8,0,16.7
				c0,0.1,0,0.1,0.1,0.2c1.3,4.7,5.6,7.9,10.4,7.9c1.3,0,2.6-0.2,3.8-0.7C85.8,26.9,88.6,20.6,86.5,14.9
				C86.5,15,86.5,14.9,86.5,14.9L86.5,14.9z"></path> 
</g> 
 <g id="Group_2" transform="translate(85.405 32.966)"> <path id="Path_4" class="st53-1661543381" d="M37.7,12.6h-4.7c-0.3,0-0.6,0.2-0.6,0.5c-0.3,1.5-0.7,3.2-1.2,5c-0.5,1.8-0.9,3.6-1.5,5.4
				c-0.5,1.8-1,3.5-1.6,5.2c-0.3,1-0.6,1.8-0.9,2.7c-0.3-1-0.7-2.1-1-3.2c-0.5-1.7-1-3.4-1.5-5.2c-0.5-1.8-0.9-3.5-1.4-5.1
				c-0.4-1.6-0.8-3.2-1.1-4.7c-0.1-0.3-0.3-0.5-0.6-0.5h-3.7c-0.3,0-0.6,0.2-0.6,0.5c-0.3,1.5-0.7,3.1-1.1,4.7
				c-0.4,1.7-0.9,3.4-1.4,5.1c-0.5,1.7-1,3.5-1.5,5.2c-0.3,1.1-0.7,2.1-1,3.2c-0.3-0.8-0.6-1.7-0.9-2.7c-0.5-1.7-1.1-3.4-1.6-5.2
				c-0.5-1.8-1-3.6-1.4-5.4c-0.5-1.8-0.8-3.5-1.2-5c0,0,0,0,0,0c-0.1-0.3-0.3-0.5-0.6-0.5H1.6c-0.4,0-0.7,0.3-0.7,0.7
				c0,0.1,0,0.1,0,0.2c1.3,5,2.6,9.7,4.1,14S7.9,35.7,9.4,39c0.1,0.2,0.3,0.4,0.6,0.4H14c0.3,0,0.5-0.2,0.6-0.4
				c0.9-2.4,1.9-5.1,2.9-8.1c0.8-2.3,1.5-4.7,2.2-7.1c0.7,2.4,1.4,4.8,2.2,7.1c1,3,2,5.7,2.9,8.1c0,0,0,0.1,0,0.1
				c0.1,0.2,0.3,0.3,0.6,0.3h3.9c0.3,0,0.5-0.2,0.6-0.4c1.5-3.4,3-7.3,4.4-11.6c1.4-4.3,2.8-9,4.1-14c0-0.2,0-0.4-0.1-0.6
				C38.1,12.7,37.9,12.6,37.7,12.6z"></path> 
 <path id="Path_5" class="st53-1661543381" d="M61.6,18.3c-0.3-1.2-0.9-2.4-1.8-3.4c-0.9-1-2-1.7-3.3-2.2c-1.6-0.5-3.2-0.8-4.8-0.8
				c-1.5,0-3.1,0.1-4.6,0.4c-1.1,0.2-2.1,0.4-3.1,0.8c-0.3,0.1-0.4,0.4-0.4,0.7l0.5,3.8c0,0.4,0.4,0.6,0.7,0.6c0.1,0,0.1,0,0.2,0
				c0.8-0.3,1.6-0.5,2.4-0.6c1.3-0.2,2.5-0.3,3.8-0.3c0.9,0,1.8,0.1,2.6,0.5c0.6,0.3,1.1,0.7,1.5,1.2c0.4,0.5,0.6,1.1,0.8,1.7
				c0.1,0.4,0.1,0.7,0.2,1.1c0,0.4,0,0.9,0,1.4C56,23,55.7,23,55.3,22.9c-0.5-0.1-0.9-0.2-1.4-0.2c-0.5-0.1-1-0.1-1.5-0.1
				c-1.4,0-2.8,0.1-4.2,0.5c-1.3,0.3-2.5,0.8-3.6,1.5c-1.1,0.7-1.9,1.6-2.5,2.7c-0.6,1.2-1,2.6-0.9,4c0,1.4,0.2,2.8,0.8,4.1
				c0.5,1.1,1.3,2.1,2.3,2.8c1,0.7,2.1,1.2,3.4,1.5c1.3,0.3,2.7,0.5,4.1,0.5c1,0,2.1,0,3.1-0.1c1-0.1,2-0.2,2.9-0.3
				c0.9-0.1,1.7-0.2,2.4-0.3s1.2-0.2,1.6-0.3c0.3,0,0.6-0.3,0.6-0.7V23.4c0-0.6,0-1.5-0.1-2C62,20.3,61.8,19.3,61.6,18.3z M56.4,28
				v6.6c-0.5,0.1-1,0.1-1.5,0.2c-0.8,0-1.8,0.1-2.8,0.1c-1.4,0.1-2.7-0.2-3.9-0.9c-0.9-0.7-1.4-1.7-1.3-2.9c0-0.6,0.1-1.2,0.5-1.7
				c0.4-0.5,0.8-0.8,1.4-1.1c0.6-0.3,1.2-0.5,1.9-0.6c0.7-0.1,1.4-0.1,2.1-0.1c0.9,0,1.7,0,2.6,0.2C55.7,27.8,56,27.9,56.4,28
				L56.4,28z"></path> 
 <path id="Path_6" class="st53-1661543381" d="M84.2,26.5c-0.8-0.7-1.6-1.2-2.6-1.6c-0.9-0.4-2-0.9-3.3-1.4c-0.9-0.3-1.7-0.6-2.3-0.9
				c-0.5-0.2-1-0.5-1.5-0.9c-0.3-0.2-0.6-0.6-0.8-0.9c-0.2-0.3-0.2-0.7-0.2-1c0-0.9,0.5-1.7,1.3-2.1c0.9-0.4,1.8-0.6,2.8-0.6
				c1.2,0,2.4,0.1,3.6,0.4c0.7,0.2,1.5,0.4,2.2,0.8c0.3,0.2,0.7,0,0.9-0.3c0-0.1,0-0.1,0.1-0.2l0.8-3.9c0,0,0,0,0,0
				c0-0.3-0.1-0.6-0.4-0.7c-0.3-0.1-0.7-0.2-1.2-0.4s-1.1-0.3-1.7-0.4c-0.6-0.1-1.3-0.2-2-0.3C79.1,12,78.4,12,77.6,12
				c-2.6-0.1-5.1,0.6-7.2,2.1c-2.6,2.2-3.5,5.9-2.1,9.1c0.4,0.8,1,1.6,1.7,2.2c0.7,0.6,1.6,1.1,2.5,1.5c0.9,0.4,1.9,0.8,1.9,0.8
				c0.5,0.2,1.3,0.6,1.8,0.8c1.1,0.5,2.3,1.1,3.3,1.7c0.7,0.5,1.1,1.3,1.1,2.1c0.1,0.7-0.3,1.4-1,1.8c-1.2,0.5-2.5,0.7-3.8,0.7
				c-1.5,0-2.9-0.1-4.3-0.6c-1.1-0.4-2-0.7-2.5-0.9c-0.3-0.1-0.7,0-0.8,0.4c0,0,0,0.1,0,0.1l-0.8,3.9c-0.1,0.3,0.1,0.6,0.4,0.7
				c0.9,0.3,1.8,0.6,2.7,0.9c1.8,0.4,3.6,0.6,5.5,0.6c3.3,0,6-0.7,7.8-1.9c1.9-1.3,3-3.6,2.9-5.9c0-1.1-0.2-2.3-0.6-3.3
				C85.6,28,85,27.2,84.2,26.5z"></path> 
 <path id="Path_7" class="st53-1661543381" d="M113.3,19.5c-0.3-1.4-0.9-2.8-1.8-4c-0.9-1.1-2.1-2-3.4-2.6c-1.7-0.7-3.5-1-5.3-0.9
				c-1,0-2,0.1-3,0.3c-0.7,0.1-1.3,0.3-1.9,0.5V0.7c0-0.2-0.1-0.4-0.2-0.5c-0.1-0.1-0.3-0.2-0.5-0.1l-4.5,0.8c0,0,0,0-0.1,0
				C92.2,0.9,92,1.2,92,1.5v37.3c0,0.4,0.3,0.7,0.7,0.7h4.5c0.4,0,0.7-0.3,0.7-0.7V18.1c0.1,0,0.2-0.1,0.3-0.1
				c0.4-0.1,0.8-0.2,1.2-0.3c0.5-0.1,0.9-0.2,1.5-0.2c0.5-0.1,1-0.1,1.4-0.1c0.9,0,1.9,0.1,2.8,0.4c0.7,0.2,1.2,0.7,1.7,1.3
				c0.5,0.7,0.8,1.6,0.9,2.4c0.1,1,0.2,1.9,0.3,2.9c0,0.5,0,1.4,0,2v12.3c0,0.4,0.3,0.7,0.7,0.7h4.5c0.4,0,0.7-0.3,0.7-0.7V25.5
				c0-0.6,0-1.5-0.1-2C113.7,22.1,113.6,20.8,113.3,19.5z"></path> 
 <path id="Path_8" class="st53-1661543381" d="M156.3,19.6c-0.2-1.4-0.7-2.8-1.5-4c-0.8-1.2-1.9-2.1-3.2-2.7c-1.6-0.7-3.3-1-5.1-0.9
				c-1,0-2,0.1-3,0.3c-0.8,0.2-1.7,0.5-2.5,0.8c-0.7,0.2-1.3,0.6-1.9,0.9c-0.3,0.2-0.5,0.3-0.6,0.4c-0.8-0.7-1.7-1.3-2.6-1.7
				c-1.4-0.5-2.9-0.7-4.3-0.7c-2,0-4,0.1-6,0.5c-1.7,0.3-3.1,0.6-4.2,0.8l0,0c-0.3,0.1-0.4,0.3-0.4,0.6v24.8c0,0.4,0.3,0.7,0.7,0.7
				h4.5c0.4,0,0.7-0.3,0.7-0.7v-21l0.2,0c0.4-0.1,0.8-0.1,1.3-0.2c0.4,0,0.9-0.1,1.5-0.1c0.5,0,1,0,1.4,0c0.8,0,1.6,0.1,2.4,0.4
				c0.6,0.3,1.1,0.8,1.4,1.3c0.4,0.8,0.7,1.6,0.8,2.5c0.2,1,0.2,2.8,0.2,2.8c0,0.6,0,1.4,0,2v12.3c0,0.4,0.3,0.7,0.7,0.7h4.5
				c0.4,0,0.7-0.3,0.7-0.7V25.5c0-0.6,0-1.5,0-2c0,0,0-1.2-0.2-2.3c-0.1-0.8-0.3-1.7-0.5-2.5c0.5-0.3,1-0.5,1.5-0.8
				c1.1-0.4,2.3-0.6,3.5-0.6c0.8,0,1.7,0.1,2.4,0.4c0.6,0.3,1.1,0.8,1.4,1.3c0.4,0.8,0.7,1.6,0.8,2.5c0.1,1,0.2,2.8,0.2,2.8
				c0,0.6,0,1.4,0,2v12.3c0,0.4,0.3,0.7,0.7,0.7h4.5c0.4,0,0.7-0.3,0.7-0.7V25.5c0-0.6,0-1.5,0-2C156.6,22.2,156.5,20.9,156.3,19.6z
				"></path> 
 <path id="Path_9" class="st53-1661543381" d="M174.6,12c-1.6,0-3.1,0.3-4.5,0.9c-1.5,0.6-2.8,1.5-3.9,2.7c-1.2,1.3-2.1,2.8-2.7,4.4
				c-0.7,2-1.1,4.1-1,6.1c0,1.9,0.2,3.7,0.8,5.5c0.5,1.6,1.3,3.1,2.5,4.4c1.2,1.3,2.6,2.3,4.2,2.9c1.9,0.7,3.9,1.1,6,1.1
				c1.6,0,3.3-0.2,4.9-0.5c1.1-0.2,2.1-0.5,3.1-1l0,0c0.2-0.1,0.4-0.4,0.3-0.7l-0.6-3.9c0-0.2-0.2-0.4-0.4-0.5
				c-0.2-0.1-0.4-0.1-0.6,0c-0.8,0.3-1.5,0.6-2.3,0.8c-1.3,0.3-2.6,0.4-3.9,0.4c-2.6,0-4.6-0.6-5.8-1.9c-1.2-1.4-1.9-3.1-2-4.9h16.7
				c0.3,0,0.6-0.2,0.6-0.6c0-0.3,0.1-0.6,0.1-0.9v-0.8c0-4.5-1-8-2.9-10.2C181.1,13.1,178.2,12,174.6,12z M168.7,22.9
				c0.1-0.6,0.3-1.2,0.5-1.7c0.3-0.8,0.7-1.4,1.2-2.1c0.5-0.6,1.1-1.1,1.8-1.4c0.8-0.4,1.6-0.6,2.5-0.5c1.5-0.1,2.9,0.6,3.9,1.7
				c0.9,1.2,1.4,2.6,1.4,4L168.7,22.9z"></path> 
 <path id="Path_10" class="st53-1661543381" d="M213.8,23.4c-0.1-1.3-0.2-2.6-0.5-3.9c-0.3-1.4-0.9-2.8-1.8-4c-0.9-1.1-2.1-2-3.4-2.6
				c-1.7-0.7-3.5-1-5.3-0.9c-2,0-4.1,0.1-6.1,0.5c-1.7,0.3-3.1,0.6-4.2,0.8l0,0c-0.3,0.1-0.4,0.3-0.4,0.6v24.8
				c0,0.4,0.3,0.7,0.7,0.7h4.5c0.4,0,0.7-0.3,0.7-0.7v-21l0.3,0c0.4-0.1,0.8-0.1,1.2-0.2c0.4,0,0.9-0.1,1.5-0.1c0.5,0,1,0,1.5,0
				c0.9,0,1.9,0.1,2.8,0.4c0.7,0.2,1.2,0.7,1.7,1.3c0.5,0.7,0.8,1.6,0.9,2.4c0.1,1,0.2,1.9,0.3,2.9c0,0.5,0,1.4,0,2v12.3
				c0,0.4,0.3,0.7,0.7,0.7h4.5c0.4,0,0.7-0.3,0.7-0.7V25.5C213.9,24.9,213.9,24,213.8,23.4z"></path> 
</g> 
</g> 
</g> 
</svg>